<svg id="stadium" width="1040" height="960" viewbox="0 0 1040 960" fill="none" xmlns="http://www.w3.org/2000/svg">

<g data-id="extras">
<g class="extra">
<path class="extra" d="M683.713 363H356.017V592H683.713V363Z" fill="#999997" stroke="white" stroke-width="1.72727"/>
<path class="extra" d="M677.262 369.451H362.468V585.549H677.262V369.451Z" stroke="white" stroke-width="1.72727"/>
<path class="extra" d="M519.865 370.096V584.904" stroke="white" stroke-width="1.72727" stroke-linecap="square"/>
<path class="extra" d="M519.817 503.982C534.896 503.982 547.12 491.843 547.12 476.868C547.12 461.894 534.896 449.754 519.817 449.754C504.738 449.754 492.514 461.894 492.514 476.868C492.514 491.843 504.738 503.982 519.817 503.982Z" stroke="white" stroke-width="1.72727"/>
<path class="extra" d="M414.718 415.251H362.468V537.814H414.718V415.251Z" stroke="white" stroke-width="1.72727"/>
<path class="extra" d="M384.4 446.214H362.468V507.496H384.4V446.214Z" stroke="white" stroke-width="1.72727"/>
<path class="extra" d="M677.262 415.251H622.431V537.814H677.262V415.251Z" stroke="white" stroke-width="1.72727"/>
<path class="extra" d="M677.262 446.214H654.685V507.496H677.262V446.214Z" stroke="white" stroke-width="1.72727"/>
</g>
<text class="stand-name" fill="black" xml:space="preserve" style="white-space: pre" font-family="Arial" font-size="24" font-weight="bold" letter-spacing="0em"><tspan x="444.02" y="894.82">WEST STAND</tspan></text>
<text class="stand-name" transform="translate(1024 273) rotate(90)" fill="black" xml:space="preserve" style="white-space: pre" font-family="Arial" font-size="24" font-weight="bold" letter-spacing="0em"><tspan x="20.4258" y="18.8203">SIR TREVOR BROOKING STAND</tspan></text>
<text class="stand-name" transform="translate(18 633) rotate(-90)" fill="black" xml:space="preserve" style="white-space: pre" font-family="Arial" font-size="24" font-weight="bold" letter-spacing="0em"><tspan x="19.8672" y="18.8203">BOBBY MOORE STAND</tspan></text>
<text class="stand-name" fill="black" xml:space="preserve" style="white-space: pre" font-family="Arial" font-size="24" font-weight="bold" letter-spacing="0em"><tspan x="443.68" y="80.8203">EAST STAND</tspan></text>
</g>
<g data-id="C_109">
<g data-id="C_109 C_112" class="color-c">
<g data-id="S_680" class="section">
<path class="block" d="M587.517 644.753C582.566 645.538 577.561 646.24 572.505 646.854L579.713 710.354C585.895 709.589 592.018 708.709 598.078 707.715L587.517 644.753Z" fill="#52C3FF"/>
</g>
<g data-id="S_679" class="section">
<path class="block" d="M541.327 713.541C553.31 713.024 565.124 712.073 576.735 710.712L569.526 647.205C559.623 648.337 549.533 649.136 539.286 649.582L541.327 713.541Z" fill="#52C3FF"/>
<text fill="white" xml:space="preserve" style="white-space: pre" font-family="Arial" font-size="16" letter-spacing="0em"><tspan x="542.141" y="687.547">109</tspan></text>
</g>
<g data-id="S_678" class="section">
<path class="block" d="M510.044 649.889C507.927 649.842 505.816 649.779 503.712 649.702L501.67 713.661C507.739 713.886 513.85 714 520 714C526.15 714 532.261 713.886 538.33 713.661L536.288 649.702C534.184 649.779 532.073 649.842 529.956 649.889L531 683.789C527.358 683.929 523.691 684 520 684C516.309 684 512.642 683.929 509 683.789L510.044 649.889Z" fill="#52C3FF"/>
<text fill="white" xml:space="preserve" style="white-space: pre" font-family="Arial" font-size="16" letter-spacing="0em"><tspan x="506.141" y="703.547">108</tspan></text>
</g>
<g data-id="S_677" class="section">
<path class="block" d="M463.265 710.712C474.876 712.073 486.69 713.024 498.673 713.541L500.714 649.582C490.467 649.136 480.377 648.337 470.474 647.205L463.265 710.712Z" fill="#52C3FF"/>
<text fill="white" xml:space="preserve" style="white-space: pre" font-family="Arial" font-size="16" letter-spacing="0em"><tspan x="470.141" y="686.547">107</tspan></text>
</g>
<g data-id="S_676" class="section">
<path class="block" d="M441.442 707.636L452.013 644.678C457.117 645.494 462.279 646.22 467.495 646.854L460.287 710.354C453.942 709.569 447.658 708.662 441.442 707.636Z" fill="#52C3FF"/>
</g>
</g>
<g data-id="C_109 C_111" class="color-c">
<g data-id="S_675" class="section">
<path class="block" d="M783.392 692.439C787.397 689.388 791.315 686.268 795.142 683.083C793.796 673.206 792.417 663.176 791.02 653.1C784.086 659.188 776.797 665.04 769.177 670.637L783.392 692.439Z" fill="#52C3FF"/>
<text fill="white" xml:space="preserve" style="white-space: pre" font-family="Arial" font-size="14" letter-spacing="0em"><tspan x="770.376" y="674.854">M16</tspan></text>
</g>
<g data-id="S_674" class="section">
<path class="block" d="M766.748 672.404C760.029 677.248 753.059 681.895 745.855 686.335L759.166 709.369C766.692 704.547 773.974 699.503 780.992 694.251L766.748 672.404Z" fill="#52C3FF"/>
<text fill="white" xml:space="preserve" style="white-space: pre" font-family="Arial" font-size="16" letter-spacing="0em"><tspan x="748.43" y="696.547">M15</tspan></text>
</g>
<g data-id="S_673" class="section">
<path class="block" d="M714.906 703.409C724.713 698.585 734.187 693.406 743.294 687.899L756.632 710.979C747.02 717.031 737.017 722.726 726.659 728.036L714.906 703.409Z" fill="#52C3FF"/>
<text fill="white" xml:space="preserve" style="white-space: pre" font-family="Arial" font-size="16" letter-spacing="0em"><tspan x="721.43" y="714.547">M14</tspan></text>
</g>
<g data-id="S_672" class="section">
<path class="block" d="M712.209 704.723C696.636 712.235 680.237 718.86 663.139 724.505L671.469 751.473C689.775 745.173 707.329 737.778 723.984 729.395L712.209 704.723Z" fill="#52C3FF"/>
<text fill="white" xml:space="preserve" style="white-space: pre" font-family="Arial" font-size="16" letter-spacing="0em"><tspan x="677.43" y="734.547">M13</tspan></text>
</g>
<g data-id="S_671" class="section">
<path class="block" d="M629.029 763.764C642.559 760.552 655.775 756.765 668.628 752.44L660.287 725.436C648.373 729.276 636.125 732.641 623.586 735.502L629.029 763.764Z" fill="#52C3FF"/>
<text fill="white" xml:space="preserve" style="white-space: pre" font-family="Arial" font-size="16" letter-spacing="0em"><tspan x="631.43" y="750.547">M12</tspan></text>
</g>
<g data-id="S_670" class="section">
<path class="block" d="M626.105 764.448C617.818 766.358 609.414 768.053 600.907 769.524L596.101 740.875C604.398 739.518 612.587 737.943 620.658 736.159L626.105 764.448Z" fill="#52C3FF"/>
<text fill="white" xml:space="preserve" style="white-space: pre" font-family="Arial" font-size="16" letter-spacing="0em"><tspan x="596.023" y="758.547">M11</tspan></text>
</g>
<g data-id="S_669" class="section">
<path class="block" d="M597.949 770.025L593.138 741.35C580.139 743.389 566.88 744.896 553.403 745.838L555.96 775.098C570.191 774.014 584.203 772.312 597.949 770.025Z" fill="#52C3FF"/>
<text fill="white" xml:space="preserve" style="white-space: pre" font-family="Arial" font-size="16" letter-spacing="0em"><tspan x="560.43" y="764.547">M10</tspan></text>
</g>
<g data-id="S_668" class="section">
<path class="block" d="M550.409 746.038L552.968 775.317C542.423 776.054 531.761 776.452 521 776.496V746.999C530.903 746.979 540.711 746.654 550.409 746.038Z" fill="#52C3FF"/>
<text fill="white" xml:space="preserve" style="white-space: pre" font-family="Arial" font-size="16" letter-spacing="0em"><tspan x="520.43" y="767.547">M09</tspan></text>
</g>
<g data-id="S_667" class="section">
<path class="block" d="M518 776.496C507.239 776.452 496.577 776.054 486.032 775.317L488.596 745.974C498.292 746.61 508.098 746.955 518 746.996V776.496Z" fill="#52C3FF"/>
<text fill="white" xml:space="preserve" style="white-space: pre" font-family="Arial" font-size="16" letter-spacing="0em"><tspan x="486.93" y="767.547">M08</tspan></text>
</g>
<g data-id="S_666" class="section">
<path class="block" d="M441.051 770.025C454.797 772.312 468.809 774.014 483.04 775.098L485.603 745.767C472.132 744.797 458.879 743.263 445.887 741.196L441.051 770.025Z" fill="#52C3FF"/>
<text fill="white" xml:space="preserve" style="white-space: pre" font-family="Arial" font-size="16" letter-spacing="0em"><tspan x="449.43" y="763.547">M07</tspan></text>
</g>
<g data-id="S_665" class="section">
<path class="block" d="M438.093 769.524C429.586 768.053 421.182 766.358 412.895 764.448L418.383 735.946C426.449 737.747 434.633 739.34 442.926 740.715L438.093 769.524Z" fill="#52C3FF"/>
<text fill="white" xml:space="preserve" style="white-space: pre" font-family="Arial" font-size="16" letter-spacing="0em"><tspan x="412.43" y="761.547">M06</tspan></text>
</g>
<g data-id="S_664" class="section">
<path class="block" d="M370.372 752.44C383.225 756.765 396.441 760.552 409.971 763.764L415.456 735.282C402.932 732.396 390.701 729.006 378.804 725.141L370.372 752.44Z" fill="#52C3FF"/>
<text fill="white" xml:space="preserve" style="white-space: pre" font-family="Arial" font-size="16" letter-spacing="0em"><tspan x="376.43" y="750.547">M05</tspan></text>
</g>
<g data-id="S_663" class="section">
<path class="block" d="M367.531 751.473C356.247 747.59 345.248 743.29 334.57 738.599L344.952 712.498C354.995 716.763 365.338 720.673 375.954 724.204L367.531 751.473Z" fill="#52C3FF"/>
<text fill="white" xml:space="preserve" style="white-space: pre" font-family="Arial" font-size="16" letter-spacing="0em"><tspan x="339.43" y="736.547">M04</tspan></text>
</g>
<g data-id="S_662" class="section">
<path class="block" d="M299.305 721.045C309.758 726.904 320.612 732.36 331.826 737.382L342.195 711.315C331.635 706.736 321.415 701.761 311.571 696.418L299.305 721.045Z" fill="#52C3FF"/>
<text fill="white" xml:space="preserve" style="white-space: pre" font-family="Arial" font-size="16" letter-spacing="0em"><tspan x="307.43" y="722.547">M03</tspan></text>
</g>
<g data-id="S_661" class="section">
<path class="block" d="M296.69 719.567C286.561 713.786 276.815 707.625 267.492 701.109L281.412 678.107C290.204 684.062 299.39 689.693 308.938 694.975L296.69 719.567Z" fill="#52C3FF"/>
<text fill="white" xml:space="preserve" style="white-space: pre" font-family="Arial" font-size="16" letter-spacing="0em"><tspan x="271.43" y="703.547">M02</tspan></text>
</g>
<g data-id="S_660" class="section">
<path class="block" d="M248.088 652.315C257.701 660.82 268.004 668.868 278.932 676.411L265.034 699.376C257.702 694.161 250.637 688.725 243.858 683.083C245.239 672.95 246.655 662.655 248.088 652.315Z" fill="#52C3FF"/>
<text fill="white" xml:space="preserve" style="white-space: pre" font-family="Arial" font-size="16" letter-spacing="0em"><tspan x="243.43" y="683.547">M01</tspan></text>
</g>
</g>
<g data-id="C_109 C_110" class="color-c">
<g data-id="S_659" class="section">
<path class="block" d="M578.812 783.89L586.251 852.106C572.409 853.736 558.368 854.866 544.158 855.474L541.922 786.975C554.372 786.403 566.678 785.368 578.812 783.89Z" fill="#52C3FF"/>
<text fill="white" xml:space="preserve" style="white-space: pre" font-family="Arial" font-size="16" letter-spacing="0em"><tspan x="550.141" y="825.547">209</tspan></text>
</g>
<g data-id="S_658" class="section">
<path class="block" d="M540.161 855.631L537.925 787.143C531.981 787.368 526.005 787.488 520 787.5H519.5C519.411 787.5 519.322 787.5 519.233 787.499C519.156 787.499 519.078 787.499 519 787.499C512.995 787.487 507.019 787.367 501.075 787.142L498.84 855.631C505.689 855.876 512.577 856 519.5 856C526.423 856 533.311 855.876 540.161 855.631Z" fill="#52C3FF"/>
<text fill="white" xml:space="preserve" style="white-space: pre" font-family="Arial" font-size="16" letter-spacing="0em"><tspan x="507.141" y="827.547">208</tspan></text>
</g>
<g data-id="S_657" class="section">
<path class="block" d="M497.078 786.974L494.843 855.474C480.632 854.866 466.591 853.736 452.749 852.106L460.188 783.89C472.322 785.367 484.628 786.402 497.078 786.974Z" fill="#52C3FF"/>
<text fill="white" xml:space="preserve" style="white-space: pre" font-family="Arial" font-size="16" letter-spacing="0em"><tspan x="463.141" y="827.547">207</tspan></text>
</g>
</g>
</g>
<g data-id="C_106">
<g data-id="C_106 C_108" class="color-b">
<g data-id="S_656" class="section">
<path class="block" d="M769.27 165.614L723.67 257.043C733.153 262.015 742.301 267.325 751.083 272.95L806.614 187.389C794.636 179.645 782.174 172.375 769.27 165.614Z" fill="#52C3FF"/>
<text fill="white" xml:space="preserve" style="white-space: pre" font-family="Arial" font-size="16" letter-spacing="0em"><tspan x="753.141" y="221.547">230</tspan></text>
</g>
<g data-id="S_655" class="section">
<path class="block" d="M754.439 275.126L809.963 189.575C821.945 197.47 833.429 205.842 844.374 214.657L780.401 293.983C772.173 287.375 763.508 281.081 754.439 275.126Z" fill="#52C3FF"/>
<text fill="white" xml:space="preserve" style="white-space: pre" font-family="Arial" font-size="16" letter-spacing="0em"><tspan x="789.141" y="245.547">229</tspan></text>
</g>
<g data-id="S_654" class="section">
<path class="block" d="M847.477 217.18L783.504 296.507C791.424 303.033 798.924 309.853 805.969 316.945L879.121 245.958C869.18 235.928 858.616 226.323 847.477 217.18Z" fill="#52C3FF"/>
<text fill="white" xml:space="preserve" style="white-space: pre" font-family="Arial" font-size="16" letter-spacing="0em"><tspan x="820.141" y="270.547">228</tspan></text>
</g>
<g data-id="S_653" class="section">
<path class="block" d="M808.769 319.801L881.922 248.813C892.022 259.208 901.458 270.047 910.18 281.288L828.63 342.709C822.517 334.808 815.885 327.164 808.769 319.801Z" fill="#52C3FF"/>
<text fill="white" xml:space="preserve" style="white-space: pre" font-family="Arial" font-size="16" letter-spacing="0em"><tspan x="847.141" y="301.547">227</tspan></text>
</g>
<g data-id="S_652" class="section">
<path class="block" d="M912.615 284.462L831.054 345.891C837.118 353.981 842.643 362.331 847.591 370.913L936.629 320.356C929.413 308.005 921.389 296.025 912.615 284.462Z" fill="#52C3FF"/>
<text fill="white" xml:space="preserve" style="white-space: pre" font-family="Arial" font-size="16" letter-spacing="0em"><tspan x="874.141" y="333.547">226</tspan></text>
</g>
<g data-id="S_651" class="section">
<path class="block" d="M938.627 323.821L849.56 374.395C851.474 377.848 853.295 381.336 855.021 384.859L880.068 405.952C878.49 402.332 876.8 398.745 875.002 395.192L957.543 362.644C952.109 349.357 945.784 336.401 938.627 323.821Z" fill="#52C3FF"/>
<text fill="white" xml:space="preserve" style="white-space: pre" font-family="Arial" font-size="16" letter-spacing="0em"><tspan x="896.141" y="366.547">225</tspan></text>
</g>
<g data-id="S_650" class="section">
<path class="block" d="M880.513 397.318C882.766 402.004 884.835 406.749 886.713 411.548L901.817 424.267L972.041 407.101C968.629 393.228 964.275 379.63 959.035 366.355L880.513 397.318Z" fill="#52C3FF"/>
<text fill="white" xml:space="preserve" style="white-space: pre" font-family="Arial" font-size="16" letter-spacing="0em"><tspan x="916.141" y="404.547">224</tspan></text>
</g>
<g data-id="S_649" class="section">
<path class="block" d="M905.607 427.458L972.972 410.991C976.243 425.067 978.546 439.421 979.823 454.005L924.026 458.608C923.07 445.775 921.535 433.921 920 433C917.5 431.5 911 432 911 432L905.607 427.458Z" fill="#52C3FF"/>
<text fill="white" xml:space="preserve" style="white-space: pre" font-family="Arial" font-size="16" letter-spacing="0em"><tspan x="937.141" y="443.547">223</tspan></text>
</g>
<g data-id="S_648" class="section">
<path class="block" d="M980.146 457.992L924.303 462.599C924.703 468.828 924.955 475.047 924.995 480.141C924.996 480.161 924.997 480.18 924.997 480.2L924.999 480.239C925 480.27 925 480.302 925 480.333C925 480.526 925 480.72 924.999 480.917L925 481.212V481.5C925 481.565 924.998 481.629 924.995 481.692C924.957 486.56 924.725 492.455 924.355 498.405L980.218 503.014C980.737 495.73 981 488.39 981 481C981 473.274 980.712 465.602 980.146 457.992Z" fill="#52C3FF"/>
<text fill="white" xml:space="preserve" style="white-space: pre" font-family="Arial" font-size="16" letter-spacing="0em"><tspan x="941.141" y="484.547">222</tspan></text>
</g>
<g data-id="S_647" class="section">
<path class="block" d="M924.087 502.397L979.908 507.002C978.677 521.601 976.419 535.97 973.19 550.062L906.374 533.729L911 529.833C911 529.833 917.5 530.333 920 528.833C921.568 527.893 923.136 515.544 924.087 502.397Z" fill="#52C3FF"/>
<text fill="white" xml:space="preserve" style="white-space: pre" font-family="Arial" font-size="16" letter-spacing="0em"><tspan x="938.141" y="528.547">221</tspan></text>
</g>
<g data-id="S_646" class="section">
<path class="block" d="M826.162 616.432L910.669 680.08C901.955 691.362 892.522 702.24 882.422 712.671L806.259 638.763C813.368 631.587 820.014 624.135 826.162 616.432Z" fill="#52C3FF"/>
<text fill="white" xml:space="preserve" style="white-space: pre" font-family="Arial" font-size="16" letter-spacing="0em"><tspan x="847.141" y="670.547">217</tspan></text>
</g>
<g data-id="S_645" class="section">
<path class="block" d="M879.625 715.531L803.424 641.586C802.579 642.416 801.728 643.241 800.871 644.063C802.768 657.7 804.642 671.301 806.45 684.604L806.856 687.591L804.312 689.747L804.049 689.969L847.962 744.421C859.111 735.243 869.681 725.6 879.625 715.531Z" fill="#52C3FF"/>
<text fill="white" xml:space="preserve" style="white-space: pre" font-family="Arial" font-size="16" letter-spacing="0em"><tspan x="826.141" y="708.547">216</tspan></text>
</g>
<g data-id="S_644" class="section">
<path class="block" d="M800.978 692.532L844.862 746.949C833.909 755.797 822.413 764.201 810.418 772.125L772.531 713.749C782.462 707.055 791.958 699.973 800.978 692.532Z" fill="#52C3FF"/>
<text fill="white" xml:space="preserve" style="white-space: pre" font-family="Arial" font-size="16" letter-spacing="0em"><tspan x="795.141" y="739.547">215</tspan></text>
</g>
<g data-id="S_643" class="section">
<path class="block" d="M807.071 774.315L769.202 715.967C759.437 722.401 749.263 728.464 738.718 734.13L769.665 796.179C782.592 789.39 795.075 782.09 807.071 774.315Z" fill="#52C3FF"/>
<text fill="white" xml:space="preserve" style="white-space: pre" font-family="Arial" font-size="16" letter-spacing="0em"><tspan x="759.141" y="763.547">214</tspan></text>
</g>
<g data-id="S_642" class="section">
<path class="block" d="M191.038 744.421L234.951 689.969C234.856 689.889 234.761 689.809 234.666 689.728L232.144 687.591L232.55 684.604C234.396 671.025 236.31 657.135 238.247 643.214C237.52 642.511 236.798 641.806 236.08 641.097L159.375 715.531C169.319 725.6 179.889 735.243 191.038 744.421Z" fill="#52C3FF"/>
<text fill="white" xml:space="preserve" style="white-space: pre" font-family="Arial" font-size="16" letter-spacing="0em"><tspan x="192.141" y="701.547">256</tspan></text>
</g>
<g data-id="S_641" class="section">
<path class="block" d="M233.251 638.268L156.578 712.671C146.478 702.24 137.045 691.362 128.331 680.08L213.463 615.961C219.575 623.654 226.182 631.098 233.251 638.268Z" fill="#52C3FF"/>
<text fill="white" xml:space="preserve" style="white-space: pre" font-family="Arial" font-size="16" letter-spacing="0em"><tspan x="168.141" y="668.547">255</tspan></text>
</g>
<g data-id="S_640" class="section">
<path class="block" d="M125.903 676.901L210.999 612.81C204.924 604.922 199.367 596.78 194.361 588.41L101.933 640.893C109.131 653.283 117.139 665.3 125.903 676.901Z" fill="#52C3FF"/>
<text fill="white" xml:space="preserve" style="white-space: pre" font-family="Arial" font-size="16" letter-spacing="0em"><tspan x="142.141" y="636.547">254</tspan></text>
</g>
<g data-id="S_639" class="section">
<path class="block" d="M164.413 565.644L81.1058 598.495C86.5103 611.816 92.809 624.808 99.944 637.423L192.336 584.96C191.986 584.353 191.639 583.745 191.296 583.135L160.403 557.12C161.671 559.982 163.008 562.824 164.413 565.644Z" fill="#52C3FF"/>
<text fill="white" xml:space="preserve" style="white-space: pre" font-family="Arial" font-size="16" letter-spacing="0em"><tspan x="119.141" y="603.547">253</tspan></text>
</g>
<g data-id="S_638" class="section">
<path class="block" d="M158.927 563.508L79.625 594.779C74.4187 581.477 70.1009 567.854 66.7282 553.955L136.416 536.921L153.686 551.463C155.298 555.518 157.046 559.534 158.927 563.508Z" fill="#52C3FF"/>
<text fill="white" xml:space="preserve" style="white-space: pre" font-family="Arial" font-size="16" letter-spacing="0em"><tspan x="96.1406" y="568.547">252</tspan></text>
</g>
<g data-id="S_637" class="section">
<path class="block" d="M132.626 533.729L65.8099 550.062C62.5813 535.97 60.3226 521.601 59.0921 507.002L114.913 502.397C115.864 515.544 117.432 527.893 119 528.833C121.5 530.333 128 529.833 128 529.833L132.626 533.729Z" fill="#52C3FF"/>
<text fill="white" xml:space="preserve" style="white-space: pre" font-family="Arial" font-size="16" letter-spacing="0em"><tspan x="75.1406" y="529.547">251</tspan></text>
</g>
<g data-id="S_636" class="section">
<path class="block" d="M58.782 503.014L114.645 498.405C114.275 492.455 114.043 486.56 114.005 481.692C114.004 481.676 114.004 481.66 114.003 481.645L114.002 481.63C114.002 481.612 114.001 481.593 114.001 481.575C114 481.55 114 481.525 114 481.5V481.178L114.001 480.917C114 480.72 114 480.526 114 480.333C114 480.269 114.002 480.205 114.005 480.141C114.045 475.047 114.297 468.828 114.697 462.599L58.8544 457.992C58.2876 465.602 58 473.274 58 481C58 488.39 58.2631 495.73 58.782 503.014Z" fill="#52C3FF"/>
<text fill="white" xml:space="preserve" style="white-space: pre" font-family="Arial" font-size="16" letter-spacing="0em"><tspan x="72.1406" y="485.547">250</tspan></text>
</g>
<g data-id="S_635" class="section">
<path class="block" d="M114.974 458.608L59.1774 454.005C60.4541 439.421 62.7572 425.067 66.0283 410.991L133.393 427.458L128 432C128 432 121.5 431.5 119 433C117.465 433.921 115.93 445.775 114.974 458.608Z" fill="#52C3FF"/>
<text fill="white" xml:space="preserve" style="white-space: pre" font-family="Arial" font-size="16" letter-spacing="0em"><tspan x="75.1406" y="443.547">249</tspan></text>
</g>
<g data-id="S_634" class="section">
<path class="block" d="M153.786 410.286C155.485 406.029 157.334 401.816 159.328 397.649L79.9653 366.355C74.7254 379.63 70.371 393.228 66.9587 407.101L137.183 424.267L153.786 410.286Z" fill="#52C3FF"/>
<text fill="white" xml:space="preserve" style="white-space: pre" font-family="Arial" font-size="16" letter-spacing="0em"><tspan x="96.1406" y="403.547">248</tspan></text>
</g>
<g data-id="S_633" class="section">
<path class="block" d="M186.372 382.065C186.144 382.515 185.917 382.966 185.692 383.417L160.521 404.614C161.879 401.559 163.316 398.528 164.832 395.521L81.4568 362.644C86.8913 349.357 93.216 336.401 100.373 323.821L190.201 374.828C189.167 376.702 188.16 378.587 187.181 380.483C186.909 381.01 186.639 381.537 186.372 382.065Z" fill="#52C3FF"/>
<text fill="white" xml:space="preserve" style="white-space: pre" font-family="Arial" font-size="16" letter-spacing="0em"><tspan x="119.141" y="366.547">247</tspan></text>
</g>
<g data-id="S_632" class="section">
<path class="block" d="M102.371 320.356L192.162 371.341C197.076 362.779 202.562 354.447 208.586 346.373L126.385 284.462C117.611 296.025 109.588 308.005 102.371 320.356Z" fill="#52C3FF"/>
<text fill="white" xml:space="preserve" style="white-space: pre" font-family="Arial" font-size="16" letter-spacing="0em"><tspan x="138.141" y="333.547">246</tspan></text>
</g>
<g data-id="S_631" class="section">
<path class="block" d="M211.002 343.185L128.82 281.288C137.542 270.047 146.978 259.208 157.078 248.813L230.748 320.303C223.672 327.659 217.079 335.295 211.002 343.185Z" fill="#52C3FF"/>
<text fill="white" xml:space="preserve" style="white-space: pre" font-family="Arial" font-size="16" letter-spacing="0em"><tspan x="165.141" y="301.547">245</tspan></text>
</g>
<g data-id="S_630" class="section">
<path class="block" d="M159.879 245.958L233.541 317.439C240.551 310.35 248.013 303.53 255.896 297.003L191.523 217.18C180.384 226.323 169.821 235.928 159.879 245.958Z" fill="#52C3FF"/>
<text fill="white" xml:space="preserve" style="white-space: pre" font-family="Arial" font-size="16" letter-spacing="0em"><tspan x="192.141" y="270.547">244</tspan></text>
</g>
<g data-id="S_629" class="section">
<path class="block" d="M258.993 294.471L194.626 214.657C205.571 205.842 217.055 197.47 229.037 189.575L284.86 275.587C275.823 281.553 267.189 287.856 258.993 294.471Z" fill="#52C3FF"/>
<text fill="white" xml:space="preserve" style="white-space: pre" font-family="Arial" font-size="16" letter-spacing="0em"><tspan x="225.141" y="245.547">243</tspan></text>
</g>
<g data-id="S_628" class="section">
<path class="block" d="M232.386 187.389L288.211 273.403C296.964 267.767 306.083 262.445 315.538 257.459L269.73 165.614C256.826 172.375 244.364 179.645 232.386 187.389Z" fill="#52C3FF"/>
<text fill="white" xml:space="preserve" style="white-space: pre" font-family="Arial" font-size="16" letter-spacing="0em"><tspan x="261.141" y="223.547">242</tspan></text>
</g>
<g data-id="S_626" class="section">
<path class="block" d="M269.335 796.179L300.282 734.13C289.737 728.464 279.563 722.401 269.798 715.967L231.929 774.315C243.925 782.09 256.408 789.39 269.335 796.179Z" fill="#52C3FF"/>
<text fill="white" xml:space="preserve" style="white-space: pre" font-family="Arial" font-size="16" letter-spacing="0em"><tspan x="253.141" y="760.547">202</tspan></text>
</g>
<g data-id="S_627" class="section">
<path class="block" d="M266.47 713.749L228.582 772.125C216.587 764.201 205.091 755.797 194.138 746.949L238.022 692.532C247.042 699.973 256.538 707.055 266.47 713.749Z" fill="#52C3FF"/>
<text fill="white" xml:space="preserve" style="white-space: pre" font-family="Arial" font-size="16" letter-spacing="0em"><tspan x="217.141" y="736.547">201</tspan></text>
</g>
</g>
<g data-id="C_107" class="color-e">
<g data-id="S_625" class="section">
<path class="block" d="M728.356 297.857C737.882 303.045 746.993 308.58 755.65 314.435L734.467 349.557L711.083 360.727C707.631 358.61 704.088 356.549 700.458 354.548C700.168 354.388 699.877 354.228 699.585 354.069L728.356 297.857Z" fill="#52C3FF"/>
<text fill="white" xml:space="preserve" style="white-space: pre" font-family="Arial" font-size="16" letter-spacing="0em"><tspan x="714.141" y="338.547">130</tspan></text>
</g>
<g data-id="S_624" class="section">
<path class="block" d="M787.385 369.034L729.233 388.955C727.355 383.038 725.298 377.222 723.068 371.517L778.397 345.088C781.676 352.902 784.677 360.889 787.385 369.034Z" fill="#52C3FF"/>
<text fill="white" xml:space="preserve" style="white-space: pre" font-family="Arial" font-size="16" letter-spacing="0em"><tspan x="743.141" y="374.547">127</tspan></text>
</g>
<g data-id="S_623" class="section">
<path class="block" d="M736.825 418.05C735.049 409.452 732.907 401.02 730.417 392.777L788.625 372.838C791.997 383.394 794.881 394.208 797.246 405.246L736.825 418.05Z" fill="#52C3FF"/>
<text fill="white" xml:space="preserve" style="white-space: pre" font-family="Arial" font-size="16" letter-spacing="0em"><tspan x="752.141" y="402.547">126</tspan></text>
</g>
<g data-id="S_622" class="section">
<path class="block" d="M741.124 445.159C740.248 437.316 739.071 429.582 737.607 421.973L798.061 409.162C800.133 419.413 801.759 429.853 802.914 440.454L741.124 445.159Z" fill="#52C3FF"/>
<text fill="white" xml:space="preserve" style="white-space: pre" font-family="Arial" font-size="16" letter-spacing="0em"><tspan x="757.141" y="434.547">125</tspan></text>
</g>
<g data-id="S_621" class="section">
<path class="block" d="M743 479H805C805 467.32 804.432 455.787 803.325 444.434L741.542 449.139C742.505 458.938 743 468.902 743 479Z" fill="#52C3FF"/>
<text fill="white" xml:space="preserve" style="white-space: pre" font-family="Arial" font-size="16" letter-spacing="0em"><tspan x="760.141" y="459.547">124</tspan></text>
</g>
<g data-id="S_620" class="section">
<path class="block" d="M712.906 600.144C708.547 602.868 704.04 605.501 699.392 608.037L728.163 664.248C741.35 657.077 753.745 649.24 765.24 640.811L749.628 617.685L712.906 600.144Z" fill="#52C3FF"/>
<text fill="white" xml:space="preserve" style="white-space: pre" font-family="Arial" font-size="16" letter-spacing="0em"><tspan x="718.734" y="637.547">114</tspan></text>
</g>
<g data-id="S_619" class="section">
<path class="block" d="M290.372 617.685L274.76 640.811C286.255 649.24 298.65 657.077 311.837 664.248L340.608 608.037C335.96 605.501 331.453 602.868 327.094 600.144L290.372 617.685Z" fill="#52C3FF"/>
<text fill="white" xml:space="preserve" style="white-space: pre" font-family="Arial" font-size="16" letter-spacing="0em"><tspan x="295.141" y="633.547">102</tspan></text>
</g>
<g data-id="S_618" class="section">
<path class="block" d="M253.522 591.655L310.74 572.054C312.681 577.944 314.802 583.731 317.093 589.406L262.661 615.406C259.336 607.658 256.284 599.735 253.522 591.655Z" fill="#52C3FF"/>
<text fill="white" xml:space="preserve" style="white-space: pre" font-family="Arial" font-size="16" letter-spacing="0em"><tspan x="271.141" y="597.547">155</tspan></text>
</g>
<g data-id="S_617" class="section">
<path class="block" d="M302.827 543.023C304.696 551.609 306.932 560.025 309.515 568.246L252.25 587.863C248.799 577.364 245.833 566.606 243.381 555.621L302.827 543.023Z" fill="#52C3FF"/>
<text fill="white" xml:space="preserve" style="white-space: pre" font-family="Arial" font-size="16" letter-spacing="0em"><tspan x="262.141" y="568.547">154</tspan></text>
</g>
<g data-id="S_616" class="section">
<path class="block" d="M298.232 515.89C299.192 523.748 300.453 531.493 302.003 539.109L242.533 551.712C240.377 541.497 238.666 531.091 237.423 520.521L298.232 515.89Z" fill="#52C3FF"/>
<text fill="white" xml:space="preserve" style="white-space: pre" font-family="Arial" font-size="16" letter-spacing="0em"><tspan x="255.141" y="537.547">153</tspan></text>
</g>
<g data-id="S_615" class="section">
<path class="block" d="M296.026 483H235.022C235.148 494.334 235.809 505.525 236.978 516.543L297.774 511.913C296.743 502.425 296.153 492.778 296.026 483Z" fill="#52C3FF"/>
<text fill="white" xml:space="preserve" style="white-space: pre" font-family="Arial" font-size="16" letter-spacing="0em"><tspan x="252.141" y="503.547">152</tspan></text>
</g>
<g data-id="S_611" class="section">
<path class="block" d="M297.465 449.064L236.675 444.434C235.568 455.787 235 467.32 235 479H296C296 468.876 296.497 458.886 297.465 449.064Z" fill="#52C3FF"/>
<text fill="white" xml:space="preserve" style="white-space: pre" font-family="Arial" font-size="16" letter-spacing="0em"><tspan x="252.141" y="467.547">148</tspan></text>
</g>
<g data-id="S_610" class="section">
<path class="block" d="M301.432 421.77L241.939 409.162C239.867 419.413 238.241 429.853 237.086 440.454L297.884 445.084C298.768 437.196 299.955 429.419 301.432 421.77Z" fill="#52C3FF"/>
<text fill="white" xml:space="preserve" style="white-space: pre" font-family="Arial" font-size="16" letter-spacing="0em"><tspan x="255.141" y="434.547">147</tspan></text>
</g>
<g data-id="S_609" class="section">
<path class="block" d="M251.375 372.838C248.003 383.394 245.119 394.208 242.754 405.246L302.217 417.847C304.007 409.211 306.167 400.743 308.677 392.467L251.375 372.838Z" fill="#52C3FF"/>
<text fill="white" xml:space="preserve" style="white-space: pre" font-family="Arial" font-size="16" letter-spacing="0em"><tspan x="262.141" y="402.547">146</tspan></text>
</g>
<g data-id="S_608" class="section">
<path class="block" d="M261.603 345.088L316.089 371.115C313.838 376.85 311.761 382.696 309.865 388.646L252.615 369.034C255.323 360.889 258.324 352.902 261.603 345.088Z" fill="#52C3FF"/>
<text fill="white" xml:space="preserve" style="white-space: pre" font-family="Arial" font-size="16" letter-spacing="0em"><tspan x="270.141" y="374.547">145</tspan></text>
</g>
<g data-id="S_607" class="section">
<path class="block" d="M304.128 348.886L283.64 314.917C292.272 309.044 301.36 303.49 310.863 298.284L339.635 354.497C335.973 356.514 332.399 358.592 328.918 360.727L304.128 348.886Z" fill="#52C3FF"/>
<text fill="white" xml:space="preserve" style="white-space: pre" font-family="Arial" font-size="16" letter-spacing="0em"><tspan x="297.141" y="338.547">142</tspan></text>
</g>
</g>
</g>
<g data-id="C_101">
<g data-id="C_101 C_105" class="color-a" data-hover="C_110 C_111 C_112" data-include="C_110 C_111 C_112">
<g data-id="S_606" class="section">
<path class="block" d="M735.185 736.006L766.115 798.024C753.566 804.484 740.606 810.465 727.275 815.935L702.471 751.414C713.713 746.69 724.63 741.546 735.185 736.006Z" fill="#52C3FF"/>
<text fill="white" xml:space="preserve" style="white-space: pre" font-family="Arial" font-size="16" letter-spacing="0em"><tspan x="719.141" y="782.547">213</tspan></text>
</g>
<g data-id="S_605" class="section">
<path class="block" d="M723.568 817.44L698.775 752.947C687.337 757.631 675.57 761.881 663.514 765.671L683.221 831.718C696.997 827.469 710.459 822.7 723.568 817.44Z" fill="#52C3FF"/>
<text fill="white" xml:space="preserve" style="white-space: pre" font-family="Arial" font-size="16" letter-spacing="0em"><tspan x="679.141" y="798.547">212</tspan></text>
</g>
<g data-id="S_604" class="section">
<path class="block" d="M659.693 766.854L679.394 832.882C665.7 836.992 651.701 840.589 637.432 843.645L623.014 776.413C635.494 773.695 647.733 770.5 659.693 766.854Z" fill="#52C3FF"/>
<text fill="white" xml:space="preserve" style="white-space: pre" font-family="Arial" font-size="16" letter-spacing="0em"><tspan x="637.734" y="810.547">211</tspan></text>
</g>
<g data-id="S_603" class="section">
<path class="block" d="M633.518 844.468L619.102 777.248C607.199 779.735 595.081 781.79 582.781 783.391L590.222 851.624C604.893 849.791 619.336 847.396 633.518 844.468Z" fill="#52C3FF"/>
<text fill="white" xml:space="preserve" style="white-space: pre" font-family="Arial" font-size="16" letter-spacing="0em"><tspan x="594.141" y="821.547">210</tspan></text>
</g>
<g data-id="S_602" class="section">
<path class="block" d="M448.778 851.624L456.219 783.39C443.919 781.789 431.801 779.735 419.898 777.247L405.482 844.468C419.664 847.396 434.107 849.791 448.778 851.624Z" fill="#52C3FF"/>
<text fill="white" xml:space="preserve" style="white-space: pre" font-family="Arial" font-size="16" letter-spacing="0em"><tspan x="419.141" y="819.547">206</tspan></text>
</g>
<g data-id="S_601" class="section">
<path class="block" d="M415.986 776.412L401.568 843.645C387.299 840.589 373.3 836.992 359.606 832.882L379.307 766.854C391.268 770.5 403.506 773.694 415.986 776.412Z" fill="#52C3FF"/>
<text fill="white" xml:space="preserve" style="white-space: pre" font-family="Arial" font-size="16" letter-spacing="0em"><tspan x="375.141" y="810.547">205</tspan></text>
</g>
<g data-id="S_600" class="section">
<path class="block" d="M355.779 831.718L375.486 765.671C363.43 761.88 351.663 757.63 340.225 752.947L315.432 817.44C328.541 822.7 342.003 827.469 355.779 831.718Z" fill="#52C3FF"/>
<text fill="white" xml:space="preserve" style="white-space: pre" font-family="Arial" font-size="16" letter-spacing="0em"><tspan x="334.141" y="798.547">204</tspan></text>
</g>
<g data-id="S_599" class="section">
<path class="block" d="M336.529 751.414L311.725 815.935C298.394 810.465 285.434 804.484 272.885 798.024L303.816 736.006C314.371 741.545 325.287 746.69 336.529 751.414Z" fill="#52C3FF"/>
<text fill="white" xml:space="preserve" style="white-space: pre" font-family="Arial" font-size="16" letter-spacing="0em"><tspan x="294.141" y="781.547">203</tspan></text>
</g>
<g data-id="S_598" class="section">
<path class="block" d="M319.086 255.612L273.282 163.772C285.812 157.337 298.75 151.379 312.057 145.928L348.927 241.839C338.664 246.069 328.706 250.668 319.086 255.612Z" fill="#52C3FF"/>
<text fill="white" xml:space="preserve" style="white-space: pre" font-family="Arial" font-size="16" letter-spacing="0em"><tspan x="300.141" y="204.547">241</tspan></text>
</g>
<g data-id="S_597" class="section">
<path class="block" d="M315.765 144.427L352.634 240.332C363.267 236.072 374.221 232.205 385.46 228.757L356.053 130.198C342.297 134.432 328.856 139.185 315.765 144.427Z" fill="#52C3FF"/>
<text fill="white" xml:space="preserve" style="white-space: pre" font-family="Arial" font-size="16" letter-spacing="0em"><tspan x="339.141" y="186.547">240</tspan></text>
</g>
<g data-id="S_596" class="section">
<path class="block" d="M389.289 227.602L359.88 129.036C373.552 124.941 387.528 121.356 401.773 118.311L423.36 218.972C411.753 221.426 400.385 224.31 389.289 227.602Z" fill="#52C3FF"/>
<text fill="white" xml:space="preserve" style="white-space: pre" font-family="Arial" font-size="16" letter-spacing="0em"><tspan x="380.141" y="175.547">239</tspan></text>
</g>
<g data-id="S_595" class="section">
<path class="block" d="M405.688 117.49C419.838 114.573 434.248 112.188 448.886 110.362L460.054 212.776C448.946 214.191 438.012 215.993 427.277 218.162L405.688 117.49Z" fill="#52C3FF"/>
<text fill="white" xml:space="preserve" style="white-space: pre" font-family="Arial" font-size="16" letter-spacing="0em"><tspan x="420.141" y="160.547">238</tspan></text>
</g>
<g data-id="S_594" class="section">
<path class="block" d="M498.235 209.492C486.675 210.016 475.262 210.954 464.024 212.287L452.857 109.881C466.674 108.257 480.69 107.131 494.875 106.525L498.235 209.492Z" fill="#52C3FF"/>
<text fill="white" xml:space="preserve" style="white-space: pre" font-family="Arial" font-size="16" letter-spacing="0em"><tspan x="463.141" y="157.547">237</tspan></text>
</g>
<g data-id="S_593" class="section">
<path class="block" d="M498.872 106.368L502.232 209.327C508.118 209.11 514.042 209 520 209C525.621 209 531.212 209.098 536.769 209.292L540.128 106.368C533.29 106.123 526.413 106 519.5 106C512.587 106 505.71 106.123 498.872 106.368Z" fill="#52C3FF"/>
<text fill="white" xml:space="preserve" style="white-space: pre" font-family="Arial" font-size="16" letter-spacing="0em"><tspan x="506.141" y="157.547">236</tspan></text>
</g>
<g data-id="S_592" class="section">
<path class="block" d="M540.766 209.448L544.125 106.525C558.31 107.131 572.326 108.257 586.143 109.881L574.988 212.171C563.746 210.862 552.33 209.947 540.766 209.448Z" fill="#52C3FF"/>
<text fill="white" xml:space="preserve" style="white-space: pre" font-family="Arial" font-size="16" letter-spacing="0em"><tspan x="549.141" y="158.547">235</tspan></text>
</g>
<g data-id="S_591" class="section">
<path class="block" d="M590.114 110.362L578.96 212.651C590.076 214.043 601.02 215.823 611.764 217.97L633.312 117.49C619.162 114.573 604.752 112.188 590.114 110.362Z" fill="#52C3FF"/>
<text fill="white" xml:space="preserve" style="white-space: pre" font-family="Arial" font-size="16" letter-spacing="0em"><tspan x="591.141" y="164.547">234</tspan></text>
</g>
<g data-id="S_590" class="section">
<path class="block" d="M615.683 218.771L637.227 118.311C651.472 121.356 665.448 124.941 679.12 129.036L649.792 227.33C638.682 224.062 627.302 221.201 615.683 218.771Z" fill="#52C3FF"/>
<text fill="white" xml:space="preserve" style="white-space: pre" font-family="Arial" font-size="16" letter-spacing="0em"><tspan x="633.141" y="172.547">233</tspan></text>
</g>
<g data-id="S_589" class="section">
<path class="block" d="M682.947 130.198L653.624 228.477C664.879 231.902 675.848 235.747 686.499 239.986L723.235 144.427C710.144 139.185 696.703 134.432 682.947 130.198Z" fill="#52C3FF"/>
<text fill="white" xml:space="preserve" style="white-space: pre" font-family="Arial" font-size="16" letter-spacing="0em"><tspan x="676.141" y="184.547">232</tspan></text>
</g>
<g data-id="S_588" class="section">
<path class="block" d="M690.209 241.484L726.943 145.928C740.25 151.379 753.188 157.337 765.718 163.772L720.118 255.204C710.474 250.276 700.494 245.695 690.209 241.484Z" fill="#52C3FF"/>
<text fill="white" xml:space="preserve" style="white-space: pre" font-family="Arial" font-size="16" letter-spacing="0em"><tspan x="716.141" y="201.547">231</tspan></text>
</g>
</g>
<g data-id="C_104" class="color-d" data-hover="C_112" data-include="C_112">
<g data-id="S_587" class="section">
<path class="block" d="M696.75 609.46C688.362 613.919 679.532 618.067 670.307 621.875L693.063 680.97C704.326 676.301 715.162 671.189 725.521 665.67L696.75 609.46Z" fill="#52C3FF"/>
<text fill="white" xml:space="preserve" style="white-space: pre" font-family="Arial" font-size="16" letter-spacing="0em"><tspan x="686.734" y="653.547">113</tspan></text>
</g>
<g data-id="S_586" class="section">
<path class="block" d="M690.287 682.109C679.253 686.585 667.818 690.639 656.029 694.239L638.881 633.046C648.781 630.053 658.345 626.697 667.528 623.006L690.287 682.109Z" fill="#52C3FF"/>
<text fill="white" xml:space="preserve" style="white-space: pre" font-family="Arial" font-size="16" letter-spacing="0em"><tspan x="652.734" y="664.547">112</tspan></text>
</g>
<g data-id="S_585" class="section">
<g data-id="S_585" class="section">
<path class="block" d="M653.156 695.105C641.948 698.442 630.425 701.37 618.628 703.863L605.964 641.386C616.265 639.256 626.293 636.753 636.006 633.903L653.156 695.105Z" fill="#52C3FF"/>
<text fill="white" xml:space="preserve" style="white-space: pre" font-family="Arial" font-size="16" letter-spacing="0em"><tspan x="617.328" y="675.547">111</tspan></text>
</g>
</g>
<g data-id="S_584" class="section">
<path class="block" d="M598.078 707.715L587.517 644.753C592.748 643.923 597.918 642.998 603.023 641.983L615.691 704.473C609.883 705.66 604.011 706.742 598.078 707.715Z" fill="#52C3FF"/>
<text fill="white" xml:space="preserve" style="white-space: pre" font-family="Arial" font-size="16" letter-spacing="0em"><tspan x="580.734" y="682.547">110</tspan></text>
</g>
<g data-id="S_583" class="section">
<path class="block" d="M452.013 644.678C446.942 643.867 441.928 642.968 436.976 641.983L424.309 704.473C429.96 705.628 435.672 706.683 441.442 707.636L452.013 644.678Z" fill="#52C3FF"/>
<text fill="white" xml:space="preserve" style="white-space: pre" font-family="Arial" font-size="16" letter-spacing="0em"><tspan x="435.141" y="681.547">106</tspan></text>
</g>
<g data-id="S_582" class="section">
<path class="block" d="M386.844 695.105C398.052 698.442 409.575 701.37 421.372 703.863L434.036 641.386C423.735 639.256 413.707 636.753 403.994 633.903L386.844 695.105Z" fill="#52C3FF"/>
<text fill="white" xml:space="preserve" style="white-space: pre" font-family="Arial" font-size="16" letter-spacing="0em"><tspan x="398.141" y="675.547">105</tspan></text>
</g>
<g data-id="S_581" class="section">
<path class="block" d="M349.713 682.109C360.747 686.585 372.182 690.639 383.971 694.239L401.119 633.046C391.219 630.053 381.655 626.697 372.472 623.006L349.713 682.109Z" fill="#52C3FF"/>
<text fill="white" xml:space="preserve" style="white-space: pre" font-family="Arial" font-size="16" letter-spacing="0em"><tspan x="361.141" y="664.547">104</tspan></text>
</g>
<g data-id="S_580" class="section">
<path class="block" d="M343.25 609.46C351.638 613.919 360.468 618.067 369.693 621.875L346.937 680.971C335.674 676.301 324.838 671.189 314.479 665.67L343.25 609.46Z" fill="#52C3FF"/>
<text fill="white" xml:space="preserve" style="white-space: pre" font-family="Arial" font-size="16" letter-spacing="0em"><tspan x="329.141" y="650.547">103</tspan></text>
</g>
<g data-id="S_579" class="section">
<path class="block" d="M368.968 340.426C365.345 341.932 361.783 343.49 358.286 345.099C353.563 347.272 348.958 349.538 344.477 351.892C344.33 351.969 344.183 352.046 344.037 352.124L315.266 295.912C320.948 292.903 326.773 290.016 332.732 287.257L322.748 264.66C327.66 262.076 332.665 259.586 337.758 257.193L369.693 340.125C369.451 340.225 369.209 340.325 368.968 340.426Z" fill="#52C3FF"/>
<text fill="white" xml:space="preserve" style="white-space: pre" font-family="Arial" font-size="16" letter-spacing="0em"><tspan x="329.141" y="320.547">141</tspan></text>
</g>
<g data-id="S_578" class="section">
<path class="block" d="M340.485 255.926C352.09 250.586 364.146 245.749 376.6 241.454L401.119 328.954C391.219 331.947 381.655 335.303 372.472 338.994L340.485 255.926Z" fill="#52C3FF"/>
<text fill="white" xml:space="preserve" style="white-space: pre" font-family="Arial" font-size="16" letter-spacing="0em"><tspan x="362.141" y="307.547">140</tspan></text>
</g>
<g data-id="S_577" class="section">
<path class="block" d="M415.688 230.096C403.289 233.056 391.193 236.531 379.444 240.485L403.994 328.097C413.707 325.247 423.735 322.744 434.036 320.614L415.688 230.096Z" fill="#52C3FF"/>
<text fill="white" xml:space="preserve" style="white-space: pre" font-family="Arial" font-size="16" letter-spacing="0em"><tspan x="396.141" y="299.547">139</tspan></text>
</g>
<g data-id="S_576" class="section">
<path class="block" d="M418.61 229.409C431.106 226.518 443.903 224.147 456.959 222.331L467.495 315.146C457.098 316.409 446.913 318.041 436.977 320.017L418.61 229.409Z" fill="#52C3FF"/>
<text fill="white" xml:space="preserve" style="white-space: pre" font-family="Arial" font-size="16" letter-spacing="0em"><tspan x="433.141" y="290.547">138</tspan></text>
</g>
<g data-id="S_575" class="section">
<path class="block" d="M497.718 218.534C484.92 219.148 472.313 220.289 459.932 221.927L470.474 314.795C480.377 313.663 490.467 312.864 500.714 312.418L497.718 218.534Z" fill="#52C3FF"/>
<text fill="white" xml:space="preserve" style="white-space: pre" font-family="Arial" font-size="16" letter-spacing="0em"><tspan x="470.141" y="284.547">137</tspan></text>
</g>
<g data-id="S_574" class="section">
<path class="block" d="M538.286 218.359C532.231 218.121 526.134 218 520 218C513.529 218 507.099 218.134 500.715 218.399L503.712 312.298C509.1 312.1 514.531 312 520 312C525.131 312 530.229 312.088 535.29 312.262L538.286 218.359Z" fill="#52C3FF"/>
<text fill="white" xml:space="preserve" style="white-space: pre" font-family="Arial" font-size="16" letter-spacing="0em"><tspan x="506.141" y="282.547">136</tspan></text>
</g>
<g data-id="S_573" class="section">
<path class="block" d="M538.287 312.376L541.284 218.487C554.084 219.074 566.697 220.187 579.082 221.798L568.539 314.683C558.631 313.574 548.537 312.799 538.287 312.376Z" fill="#52C3FF"/>
<text fill="white" xml:space="preserve" style="white-space: pre" font-family="Arial" font-size="16" letter-spacing="0em"><tspan x="542.141" y="283.547">135</tspan></text>
</g>
<g data-id="S_572" class="section">
<path class="block" d="M582.057 222.195L571.519 315.027C581.923 316.267 592.116 317.874 602.062 319.827L620.435 229.189C607.928 226.326 595.121 223.983 582.057 222.195Z" fill="#52C3FF"/>
<text fill="white" xml:space="preserve" style="white-space: pre" font-family="Arial" font-size="16" letter-spacing="0em"><tspan x="579.141" y="288.547">134</tspan></text>
</g>
<g data-id="S_571" class="section">
<path class="block" d="M605.004 320.416L623.358 229.869C635.769 232.803 647.879 236.25 659.642 240.179L635.082 327.827C625.355 325.001 615.316 322.522 605.004 320.416Z" fill="#52C3FF"/>
<text fill="white" xml:space="preserve" style="white-space: pre" font-family="Arial" font-size="16" letter-spacing="0em"><tspan x="616.141" y="295.547">133</tspan></text>
</g>
<g data-id="S_570" class="section">
<path class="block" d="M662.488 241.141L637.959 328.676C647.876 331.646 657.458 334.979 666.661 338.647L698.665 255.536C687.038 250.221 674.962 245.41 662.488 241.141Z" fill="#52C3FF"/>
<text fill="white" xml:space="preserve" style="white-space: pre" font-family="Arial" font-size="16" letter-spacing="0em"><tspan x="650.141" y="305.547">132</tspan></text>
</g>
<g data-id="S_569" class="section">
<path class="block" d="M701.395 256.797C706.5 259.179 711.516 261.66 716.44 264.234L706.438 286.874C712.411 289.622 718.25 292.498 723.947 295.496L695.175 351.71C690.541 349.283 685.774 346.951 680.883 344.718C677.167 343.022 673.38 341.383 669.524 339.804C669.497 339.793 669.47 339.782 669.443 339.771L701.395 256.797Z" fill="#52C3FF"/>
<text fill="white" xml:space="preserve" style="white-space: pre" font-family="Arial" font-size="16" letter-spacing="0em"><tspan x="683.141" y="319.547">131</tspan></text>
</g>
</g>
</g>
<g data-id="C_100">
<g data-id="C_103" class="color-f">
<g data-id="S_568" class="section">
<path class="block" d="M741.234 511.837L803.022 516.543C804.191 505.525 804.852 494.334 804.978 483H742.974C742.848 492.752 742.26 502.374 741.234 511.837Z" fill="#52C3FF"/>
<text fill="white" xml:space="preserve" style="white-space: pre" font-family="Arial" font-size="16" letter-spacing="0em"><tspan x="760.141" y="510.547">120</tspan></text>
</g>
<g data-id="S_567" class="section">
<path class="block" d="M737.038 538.906L797.467 551.712C799.623 541.497 801.334 531.091 802.577 520.521L740.777 515.814C739.825 523.629 738.574 531.331 737.038 538.906Z" fill="#52C3FF"/>
<text fill="white" xml:space="preserve" style="white-space: pre" font-family="Arial" font-size="16" letter-spacing="0em"><tspan x="757.734" y="537.547">119</tspan></text>
</g>
<g data-id="S_566" class="section">
<path class="block" d="M787.75 587.863C791.201 577.364 794.167 566.606 796.619 555.621L736.217 542.821C734.363 551.369 732.144 559.749 729.582 567.937L787.75 587.863Z" fill="#52C3FF"/>
<text fill="white" xml:space="preserve" style="white-space: pre" font-family="Arial" font-size="16" letter-spacing="0em"><tspan x="751.734" y="570.547">118</tspan></text>
</g>
<g data-id="S_565" class="section">
<path class="block" d="M786.478 591.655C783.716 599.735 780.664 607.658 777.339 615.406L722.068 589.005C724.338 583.36 726.438 577.604 728.361 571.747L786.478 591.655Z" fill="#52C3FF"/>
<text fill="white" xml:space="preserve" style="white-space: pre" font-family="Arial" font-size="16" letter-spacing="0em"><tspan x="742.734" y="597.547">117</tspan></text>
</g>
</g>
<g data-id="C_100 C_102" class="color-f">
<g data-id="S_564" class="section">
<path class="block" d="M886.81 550.203C885.018 554.8 883.051 559.347 880.916 563.84L959.375 594.779C964.581 581.477 968.899 567.854 972.272 553.955L902.584 536.921L886.81 550.203Z" fill="#52C3FF"/>
<text fill="white" xml:space="preserve" style="white-space: pre" font-family="Arial" font-size="16" letter-spacing="0em"><tspan x="924.141" y="570.547">220</tspan></text>
</g>
<g data-id="S_563" class="section">
<path class="block" d="M875.422 565.974C877.107 562.608 878.695 559.211 880.182 555.785L849.594 581.544C848.881 582.83 848.156 584.112 847.417 585.388L939.056 637.423C946.191 624.808 952.49 611.816 957.894 598.495L875.422 565.974Z" fill="#52C3FF"/>
<text fill="white" xml:space="preserve" style="white-space: pre" font-family="Arial" font-size="16" letter-spacing="0em"><tspan x="910.141" y="611.547">219</tspan></text>
</g>
<g data-id="S_562" class="section">
<path class="block" d="M937.067 640.893L845.385 588.834C840.344 597.223 834.749 605.383 828.634 613.286L913.097 676.901C921.861 665.3 929.869 653.283 937.067 640.893Z" fill="#52C3FF"/>
<text fill="white" xml:space="preserve" style="white-space: pre" font-family="Arial" font-size="16" letter-spacing="0em"><tspan x="874.141" y="637.547">218</tspan></text>
</g>
</g>
</g>
</svg>